<?xml version="1.0" standalone="no"?>
<!DOCTYPE svg PUBLIC "-//W3C//DTD SVG 20010904//EN"
 "http://www.w3.org/TR/2001/REC-SVG-20010904/DTD/svg10.dtd">
<svg version="1.0" xmlns="http://www.w3.org/2000/svg"
 width="864.000000pt" height="1184.000000pt" viewBox="0 0 864.000000 1184.000000"
 preserveAspectRatio="xMidYMid meet">

<g transform="translate(0.000000,1184.000000) scale(0.100000,-0.100000)"
fill="#000000" stroke="none">
<path d="M3808 11084 c-43 -8 -162 -44 -265 -80 -103 -36 -240 -84 -303 -105
-63 -22 -173 -56 -243 -75 -199 -53 -271 -89 -232 -118 15 -11 12 -14 -31 -31
-164 -61 -322 -179 -339 -253 -4 -19 -42 -75 -92 -135 -112 -135 -181 -239
-188 -285 -4 -20 -24 -77 -45 -127 -82 -193 -130 -396 -130 -550 0 -103 43
-711 61 -855 12 -99 22 -148 43 -208 14 -40 14 -43 -2 -48 -108 -33 -158 -122
-169 -299 -7 -112 14 -205 88 -396 115 -300 161 -426 179 -492 36 -130 92
-182 212 -195 l61 -7 29 -115 c65 -259 136 -418 240 -538 15 -18 28 -36 28
-40 0 -4 -18 -17 -40 -30 -52 -29 -80 -69 -128 -177 -22 -49 -54 -121 -72
-160 -18 -38 -45 -98 -61 -133 -20 -43 -36 -65 -54 -72 -70 -27 -348 -238
-408 -311 -42 -50 -67 -68 -205 -142 -148 -79 -323 -182 -472 -276 -36 -22
-78 -48 -95 -57 -33 -19 -103 -64 -370 -236 -99 -64 -243 -156 -320 -204 -77
-48 -218 -138 -312 -200 l-173 -113 0 -2011 0 -2010 4061 0 4061 0 -6 63 c-3
34 -8 108 -12 165 -4 65 -11 102 -18 102 -6 0 -19 20 -30 45 -24 59 -86 119
-158 152 -32 15 -58 30 -58 34 0 4 15 12 33 20 60 24 143 89 166 130 23 40 23
41 11 212 -13 189 -31 335 -84 682 -31 205 -36 266 -46 560 -18 565 -23 608
-146 1074 -41 157 -88 343 -104 415 -62 269 -88 323 -235 475 -246 255 -473
403 -945 614 -80 36 -174 78 -210 95 -264 121 -473 219 -580 271 l-126 60 -24
83 c-45 157 -136 313 -275 472 l-64 73 30 199 c16 109 29 210 29 223 0 14 20
63 44 110 72 142 130 315 180 544 6 24 9 26 28 16 11 -6 44 -9 74 -7 64 5 114
36 153 95 31 47 105 246 156 418 18 60 54 178 80 260 l47 150 -5 135 c-8 220
-54 318 -154 335 -21 4 -41 7 -44 8 -3 1 2 36 12 77 34 140 41 222 70 800 10
194 10 266 0 343 -17 132 -54 283 -89 359 -53 116 -149 220 -252 273 -45 23
-46 24 -58 94 -35 205 -163 407 -331 520 -132 90 -342 166 -761 275 -271 71
-453 89 -612 60z m-643 -1399 c299 -92 692 -90 952 7 l53 19 88 -25 c181 -52
314 -58 404 -18 l46 20 6 -20 c5 -20 9 -21 118 -14 62 4 133 11 158 16 55 10
108 -10 159 -61 77 -78 96 -195 67 -426 -25 -206 -26 -202 42 -275 158 -172
196 -236 211 -354 83 -621 100 -906 68 -1129 -9 -60 -21 -158 -28 -217 -7 -60
-17 -104 -22 -101 -5 3 -6 -4 -2 -17 5 -14 3 -20 -3 -16 -6 4 -19 -32 -32 -91
-24 -111 -74 -263 -133 -403 -120 -287 -259 -467 -519 -674 -294 -235 -443
-291 -793 -300 -398 -10 -502 29 -898 337 -133 104 -382 325 -406 361 -11 16
-11 18 -1 9 29 -27 42 -7 14 21 -8 9 -11 16 -5 16 7 0 7 8 1 26 -6 14 -8 37
-6 50 3 14 1 22 -5 19 -5 -4 -19 -3 -31 1 -20 6 -20 8 -5 19 20 14 12 49 -9
41 -8 -3 -14 0 -15 7 0 7 -3 21 -6 32 -3 11 -5 33 -4 49 0 19 -7 35 -19 43
-11 8 -18 18 -15 23 3 5 -3 15 -14 21 -10 7 -17 18 -15 24 3 6 -2 12 -11 12
-11 0 -14 -6 -9 -21 3 -14 2 -17 -4 -8 -5 7 -16 10 -24 7 -13 -5 -21 14 -42
103 -30 126 -31 132 -11 106 9 -12 14 -14 15 -5 0 8 6 11 17 7 10 -4 14 -4 10
0 -4 4 2 13 13 21 18 13 19 17 6 41 -8 15 -12 44 -11 66 2 21 0 46 -5 55 -5 9
-18 39 -31 66 -12 28 -33 75 -47 105 -14 30 -28 71 -33 90 -4 19 -21 80 -36
135 -26 94 -28 111 -27 295 0 107 8 285 18 395 35 401 53 474 154 613 81 112
82 117 80 369 -1 175 2 229 15 274 40 137 179 238 354 255 37 4 77 10 88 15
30 12 33 11 120 -16z m2721 -1461 c48 -23 81 -95 95 -214 18 -148 8 -234 -45
-385 -25 -71 -57 -170 -72 -220 -37 -127 -132 -374 -156 -410 -34 -50 -68 -70
-120 -70 -32 0 -53 6 -65 17 -16 17 -16 25 6 167 22 146 24 151 60 190 21 23
45 41 53 41 27 0 66 39 83 84 26 68 12 77 -19 13 -21 -43 -34 -58 -54 -63 -15
-3 -38 -10 -51 -15 -24 -10 -24 -10 -7 13 67 93 74 114 56 188 -7 30 -15 71
-18 90 -4 31 -3 33 11 22 9 -8 23 -36 32 -63 17 -51 35 -65 35 -28 0 36 -30
142 -51 177 -27 47 -24 67 24 154 75 138 151 220 190 205 24 -9 59 -115 64
-192 4 -51 -1 -92 -16 -152 -24 -93 -26 -127 -5 -68 54 148 45 354 -18 423
-52 55 -124 4 -220 -157 -25 -41 -28 -43 -28 -20 0 26 17 129 27 163 8 28 75
98 108 112 40 18 60 17 101 -2z m-3748 -95 c23 -17 42 -32 42 -34 0 -2 7 -39
15 -82 8 -43 15 -82 15 -86 0 -5 -29 21 -64 57 -68 69 -102 85 -145 70 -44
-15 -76 -151 -55 -231 12 -44 24 -22 25 45 1 37 3 59 6 50 2 -10 8 -18 13 -18
5 0 9 8 9 18 -1 9 2 27 6 40 5 14 3 22 -4 22 -6 0 -11 5 -11 11 0 5 4 7 10 4
6 -3 7 1 4 9 -12 30 52 19 91 -16 50 -43 128 -146 120 -158 -3 -6 -2 -10 3
-10 9 0 32 -133 32 -187 0 -36 0 -36 -24 -27 -18 7 -22 44 -6 44 6 0 4 10 -4
23 -11 16 -12 33 -7 63 8 45 -1 84 -21 84 -9 0 -9 3 2 11 13 9 13 10 0 6 -8
-2 -16 -14 -18 -26 -3 -18 -6 -20 -18 -10 -8 6 -23 9 -35 6 -12 -3 -22 0 -26
9 -3 8 -9 11 -14 8 -5 -3 -9 1 -9 8 0 9 -3 9 -10 -2 -5 -8 -10 -11 -10 -6 0 5
-7 3 -14 -4 -11 -8 -12 -18 -5 -36 8 -24 4 -89 -8 -124 -3 -8 -5 -44 -4 -80 1
-51 -1 -61 -10 -47 -6 10 -8 25 -5 33 3 8 2 12 -4 9 -5 -3 -24 38 -41 92 -29
85 -33 112 -33 203 -1 242 88 350 212 259z m-138 -169 c0 -5 -2 -10 -4 -10 -3
0 -8 5 -11 10 -3 6 -1 10 4 10 6 0 11 -4 11 -10z m84 -175 c-4 -8 1 -18 10
-21 18 -7 59 -81 70 -126 3 -16 13 -28 21 -28 8 0 15 -7 15 -15 0 -8 4 -15 9
-15 5 0 7 -37 4 -84 -5 -97 3 -120 74 -203 41 -49 45 -59 64 -163 11 -62 18
-118 15 -125 -3 -8 0 -15 6 -17 7 -3 9 -15 4 -31 -4 -18 -11 -24 -21 -21 -8 4
-15 2 -15 -3 0 -17 -50 -34 -68 -24 -36 19 -62 58 -77 116 -8 33 -31 104 -51
159 l-35 100 55 -52 c50 -47 76 -63 76 -45 0 3 -25 32 -55 64 -35 36 -69 87
-93 136 -36 75 -37 82 -36 183 1 129 13 242 24 235 5 -3 7 -12 4 -20z m106 -5
c0 -5 -5 -10 -11 -10 -5 0 -7 5 -4 10 3 6 8 10 11 10 2 0 4 -4 4 -10z m3427
-233 c5 -46 2 -61 -17 -91 -12 -20 -24 -36 -26 -36 -3 0 -3 19 0 43 3 23 8 68
12 101 7 71 23 63 31 -17z m-3318 -111 c10 -58 16 -106 15 -106 -2 0 -15 17
-28 39 -16 25 -23 46 -19 61 4 16 3 21 -5 16 -7 -4 -12 -5 -12 -2 0 18 23 107
26 103 3 -2 13 -52 23 -111z m87 -152 c-3 -8 -2 -14 2 -14 5 0 8 -24 8 -52 l1
-53 -12 50 c-6 28 -14 70 -18 95 -5 45 -5 45 9 17 9 -16 13 -35 10 -43z m-49
-390 c-3 -3 -12 -4 -19 -1 -8 3 -5 6 6 6 11 1 17 -2 13 -5z m192 -264 c0 -9
-4 -8 -9 5 -5 11 -9 27 -9 35 0 9 4 8 9 -5 5 -11 9 -27 9 -35z m76 0 c3 -5 1
-10 -4 -10 -6 0 -11 5 -11 10 0 6 2 10 4 10 3 0 8 -4 11 -10z m2593 -512 c1
-13 -5 -72 -13 -133 -52 -388 -75 -607 -75 -716 0 -45 13 -117 41 -225 l41
-159 -6 -170 c-5 -176 -28 -303 -72 -400 -10 -22 -18 -44 -18 -50 -1 -5 -47
-66 -104 -135 -126 -152 -197 -259 -260 -387 l-48 -98 -82 170 c-45 94 -91
196 -102 227 -41 112 -120 198 -270 293 -41 27 -113 84 -160 129 -349 333
-599 579 -597 589 1 7 -3 11 -10 10 -13 -3 -336 337 -467 491 -42 49 -73 93
-70 97 3 5 2 8 -3 7 -10 -3 -54 45 -101 111 -30 42 -32 49 -32 136 l0 92 89
-91 c75 -75 88 -93 78 -106 -10 -13 -10 -13 5 -2 15 12 26 6 90 -50 311 -270
535 -408 729 -448 175 -36 381 -21 536 41 169 66 285 160 512 414 88 99 360
385 366 385 0 0 2 -10 3 -22z m-2471 -95 c-3 -27 -11 -67 -18 -91 -13 -42 -12
-45 24 -115 88 -171 323 -443 733 -847 354 -349 638 -610 726 -666 40 -26 93
-63 117 -83 56 -46 127 -141 136 -184 4 -17 45 -106 90 -197 112 -221 109
-210 41 -210 -152 0 -426 55 -581 117 -147 58 -425 204 -425 222 0 4 21 23 48
42 26 18 82 64 124 101 42 38 79 68 82 68 3 0 22 -12 43 -26 70 -48 195 -105
272 -125 42 -11 125 -22 186 -24 l110 -5 -130 25 c-71 14 -141 29 -155 34
l-25 9 24 1 c39 1 71 38 71 81 0 91 -126 153 -192 93 -28 -25 -24 -85 8 -123
l26 -31 -28 13 c-49 20 -184 99 -184 107 0 11 112 117 153 144 41 28 35 42
-14 32 -20 -5 -77 -49 -163 -127 -72 -66 -165 -147 -206 -179 -120 -95 -410
-309 -418 -309 -8 0 -114 178 -345 580 -195 339 -443 821 -477 928 -29 93 -24
124 44 260 29 59 86 183 127 276 73 167 131 256 166 256 12 0 14 -10 10 -47z
m2618 -469 c82 -122 129 -231 190 -445 31 -109 72 -227 93 -269 21 -41 94
-185 164 -320 141 -272 190 -381 218 -484 l20 -69 -28 25 c-15 14 -61 50 -102
80 -98 72 -151 131 -194 217 -40 78 -69 103 -123 105 -36 1 -36 1 -50 -58 -33
-147 -102 -198 -365 -271 -51 -15 -112 -37 -135 -51 -41 -24 -93 -94 -93 -125
0 -9 5 -6 12 6 17 31 70 85 98 100 14 7 48 16 75 20 28 3 81 13 118 22 37 8
70 13 72 11 3 -2 -19 -42 -47 -89 -95 -155 -213 -251 -362 -294 -74 -22 -166
-34 -166 -23 0 12 56 122 98 193 40 67 221 313 246 334 14 12 15 10 10 -20 -8
-49 44 69 106 244 101 281 159 575 147 747 -9 118 -75 298 -149 402 -18 25
-18 33 -6 109 l13 81 43 -48 c23 -27 67 -86 97 -130z m-3002 -273 c3 -16 24
-75 47 -131 22 -56 40 -105 40 -109 0 -10 -70 91 -91 131 -12 24 -19 58 -19
93 0 58 13 67 23 16z m3465 -316 c-3 -3 -9 2 -12 12 -6 14 -5 15 5 6 7 -7 10
-15 7 -18z m111 -56 c-7 -4 -4 -9 10 -14 11 -3 21 -11 21 -16 0 -13 -2 -12
-72 27 -66 37 -85 52 -55 41 9 -4 17 -2 17 3 0 5 20 0 45 -12 26 -13 40 -25
34 -29z m284 -120 c23 -12 44 -24 47 -28 3 -3 12 -7 20 -9 26 -5 71 -25 66
-29 -2 -3 -14 0 -25 7 -17 8 -21 8 -21 -4 0 -7 7 -16 15 -20 8 -3 15 -13 15
-23 0 -14 2 -15 9 -4 7 11 10 9 16 -7 3 -12 11 -21 17 -19 6 1 13 -5 15 -13 4
-13 3 -13 -6 0 -6 8 -11 11 -11 7 0 -9 -170 77 -235 118 l-40 26 35 -5 c19 -2
44 -7 55 -11 17 -6 17 -4 -4 14 -30 27 -21 27 32 0z m257 -119 c8 -5 11 -10 5
-10 -5 0 -17 5 -25 10 -8 5 -10 10 -5 10 6 0 17 -5 25 -10z m24 -62 c3 3 6 -5
6 -17 0 -21 -1 -21 -29 -6 -42 21 -48 36 -12 25 16 -4 32 -6 35 -2z m156 -23
c25 -13 41 -24 35 -24 -5 0 -30 11 -55 24 -25 13 -40 24 -35 24 6 0 30 -11 55
-24z m-31 -58 c21 -9 41 -23 44 -31 5 -13 2 -13 -18 -4 -14 6 -25 15 -25 20 0
4 -3 7 -7 6 -12 -3 -80 29 -87 41 -4 6 -3 11 3 11 6 0 8 8 5 18 -4 9 6 3 20
-14 14 -18 43 -39 65 -47z m191 -25 c3 -3 -2 -3 -11 1 -9 3 -27 -2 -39 -10
-19 -13 -24 -13 -31 -2 -8 13 -10 12 -13 -10 -3 -24 -16 -21 -16 3 0 21 -4 27
-16 22 -8 -3 -12 -2 -9 3 6 11 46 11 61 -1 6 -4 11 -2 11 7 0 8 -3 15 -7 15
-3 0 -15 7 -26 15 -10 9 6 4 36 -11 30 -14 57 -29 60 -32z m90 -48 c0 -2 -13
2 -30 11 -16 9 -30 18 -30 21 0 2 14 -2 30 -11 17 -9 30 -18 30 -21z m-134 1
c19 -16 5 -25 -21 -13 -13 6 -22 15 -19 19 6 10 24 8 40 -6z m100 -72 c-6 -6
-36 9 -36 18 0 5 9 4 20 -3 10 -7 18 -14 16 -15z m127 -3 c-3 -11 0 -20 6 -20
5 0 8 7 5 15 -4 8 -3 15 0 15 9 0 126 -79 126 -86 0 -2 -11 3 -24 12 -31 20
-27 19 -53 5 -15 -7 -23 -8 -23 -1 0 5 8 10 18 11 10 0 12 3 4 6 -6 2 -10 8
-7 13 3 4 -2 10 -10 14 -9 3 -19 -3 -26 -16 -10 -18 -8 -24 11 -40 12 -10 29
-18 37 -18 8 0 11 -4 8 -10 -3 -5 -1 -10 6 -10 7 0 10 -3 7 -6 -8 -7 -84 32
-108 56 -11 11 -22 20 -25 19 -3 -1 -19 4 -35 11 -34 14 -39 35 -10 43 14 3
20 0 20 -10 0 -13 3 -13 15 -3 8 7 22 10 30 6 9 -3 15 0 15 10 0 8 4 13 9 10
5 -3 7 -15 4 -26z m234 -150 c40 -32 50 -46 42 -56 -7 -8 -7 -14 1 -19 6 -3 8
-10 5 -14 -2 -5 14 -28 38 -52 23 -23 41 -46 40 -51 -2 -4 4 -8 12 -8 8 0 15
-5 15 -11 0 -5 4 -8 8 -5 20 12 4 58 -33 99 -22 24 2 1 53 -50 90 -90 150
-183 139 -216 -2 -6 -7 3 -11 21 -4 17 -12 32 -17 32 -6 0 -8 4 -5 9 4 5 -5 4
-18 -2 -13 -7 -22 -15 -20 -19 3 -5 1 -8 -5 -8 -15 0 -26 23 -13 28 7 2 12 8
12 13 0 6 -4 8 -9 5 -14 -9 -39 3 -46 21 -3 9 0 20 6 24 9 5 7 12 -6 26 -16
15 -18 15 -13 1 4 -9 5 -18 3 -20 -2 -2 -53 44 -113 102 -72 68 -106 107 -99
112 9 6 8 11 -3 19 -13 9 -13 10 2 6 32 -11 29 8 -9 43 -47 42 -27 29 44 -30z
m-3068 -6 c32 -23 54 -79 41 -104 -27 -50 -119 -28 -145 35 -15 34 -11 63 9
77 19 13 71 9 95 -8z m3490 -799 c-1 -19 -39 110 -38 130 0 11 9 -11 20 -50
10 -38 18 -74 18 -80z m-39 35 c0 -10 -4 -21 -9 -25 -5 -3 -9 8 -9 24 1 32 18
33 18 1z m47 -72 c-3 -8 -6 -5 -6 6 -1 11 2 17 5 13 3 -3 4 -12 1 -19z m100
-380 c-3 -8 -6 -5 -6 6 -1 11 2 17 5 13 3 -3 4 -12 1 -19z m70 -360 c-3 -8 -6
-5 -6 6 -1 11 2 17 5 13 3 -3 4 -12 1 -19z"/>
<path d="M4792 8699 c-239 -16 -429 -65 -509 -133 -40 -34 -73 -101 -73 -150
l0 -39 43 7 c23 4 53 9 67 12 22 4 23 3 5 -5 -11 -5 -15 -10 -10 -10 6 -1 11
-13 11 -28 2 -44 10 -67 23 -71 9 -3 9 -8 -1 -20 -11 -13 -11 -15 2 -7 15 8
-29 -46 -63 -77 -14 -14 -16 -18 -5 -18 8 0 35 20 61 45 50 47 105 81 115 70
4 -4 0 -12 -9 -18 -65 -48 -159 -152 -159 -175 0 -9 16 1 38 25 34 36 122 103
136 103 3 0 6 -13 6 -29 0 -40 19 -92 44 -120 l21 -24 -35 6 c-19 4 -64 9
-100 12 -95 7 -33 -11 105 -31 212 -31 378 -11 486 60 33 22 42 24 69 15 17
-6 33 -9 36 -7 8 9 -114 115 -168 146 -123 70 -285 93 -394 56 -51 -17 -73
-11 -28 8 16 6 71 14 123 16 158 7 272 -25 402 -114 78 -53 102 -59 54 -14
-13 12 -22 27 -18 33 3 6 1 7 -5 3 -6 -3 -14 -2 -17 4 -13 20 -148 82 -223
101 -49 12 -109 19 -173 19 -111 0 -129 4 -122 29 3 12 -5 22 -24 31 -27 13
-26 13 57 32 47 10 102 16 123 13 24 -3 45 0 61 10 14 10 59 18 117 21 108 8
192 -11 337 -73 46 -19 86 -33 89 -30 19 20 -178 236 -267 292 -52 33 -68 35
-228 24z m-64 -487 c15 -10 7 -38 -13 -46 -20 -7 -49 18 -42 38 7 17 34 21 55
8z m161 -22 c52 -28 118 -78 110 -83 -90 -49 -178 -77 -242 -77 l-29 0 31 30
c31 31 51 83 51 133 0 34 9 34 79 -3z"/>
<path d="M2817 8646 c-53 -19 -117 -75 -172 -148 -26 -35 -53 -67 -61 -71 -8
-5 -12 -12 -9 -17 3 -4 -6 -33 -20 -65 -14 -31 -20 -53 -13 -49 6 4 23 8 37 9
13 0 26 7 29 15 3 13 2 13 -8 0 -10 -13 -11 -13 -7 0 5 22 121 86 200 111 63
20 81 21 210 15 78 -4 165 -11 192 -17 28 -5 64 -10 80 -10 29 -1 29 -1 5 -9
-14 -4 -20 -9 -15 -9 6 -1 2 -6 -8 -12 -17 -10 -16 -12 8 -35 l26 -24 -94 0
c-102 0 -215 -24 -289 -61 -85 -42 -183 -128 -166 -145 3 -2 29 17 59 43 102
87 235 133 384 133 102 0 192 -26 267 -77 24 -16 49 -32 56 -37 6 -4 3 9 -9
28 -12 20 -25 34 -29 31 -5 -3 -12 -1 -15 5 -4 6 -3 10 2 9 19 -3 25 2 14 15
-9 11 -8 15 4 20 9 3 13 10 10 16 -9 14 8 12 25 -2 8 -7 6 -3 -4 10 -11 12
-16 22 -12 22 4 0 2 10 -5 21 -10 20 -9 21 12 16 87 -20 88 -20 94 6 9 35 -10
97 -44 144 -37 52 -113 90 -217 109 -116 22 -468 29 -517 10z"/>
<path d="M2405 8551 c-7 -12 -3 -72 5 -65 5 6 10 74 4 74 -1 0 -5 -4 -9 -9z"/>
<path d="M2526 8375 c-3 -8 -1 -15 4 -15 6 0 10 5 10 11 0 5 5 7 12 3 7 -4 8
-3 4 4 -10 16 -23 15 -30 -3z"/>
<path d="M3602 8310 c-11 -17 -10 -26 5 -53 10 -18 21 -33 26 -35 4 -2 7 -8 7
-12 0 -12 -44 -3 -48 10 -2 5 -11 10 -20 9 -10 0 -12 -3 -5 -5 7 -3 9 -12 6
-20 -3 -8 0 -14 7 -14 6 0 8 -5 5 -10 -4 -6 -12 -10 -18 -9 -38 5 -39 -4 -2
-41 21 -21 43 -36 48 -33 6 3 7 2 4 -3 -3 -6 -2 -16 4 -24 9 -15 11 -5 13 80
1 28 5 36 23 38 18 3 25 -6 42 -53 18 -48 21 -78 21 -223 1 -123 3 -162 11
-149 6 11 11 92 12 195 l2 177 -32 60 c-17 33 -46 77 -65 98 -32 37 -33 38
-46 17z m18 -134 c0 -3 -4 -8 -10 -11 -5 -3 -10 -1 -10 4 0 6 5 11 10 11 6 0
10 -2 10 -4z"/>
<path d="M3536 8278 c1 -13 3 -27 3 -33 1 -5 6 -2 12 8 11 19 6 47 -9 47 -5 0
-8 -10 -6 -22z"/>
<path d="M3046 8279 c-80 -19 -179 -76 -241 -139 -33 -34 -69 -65 -80 -70 -18
-8 -17 -9 6 -9 15 -1 29 -8 33 -16 7 -19 32 -20 39 -1 4 10 18 7 64 -15 111
-54 237 -60 441 -22 48 9 116 21 152 28 47 8 66 16 68 28 4 22 -107 134 -168
170 -87 50 -215 69 -314 46z m-68 -116 c0 -49 17 -91 50 -127 l27 -29 -45 6
c-59 8 -140 34 -164 52 -17 12 -17 17 -5 31 13 16 127 104 134 104 2 0 4 -17
3 -37z m269 26 c19 -19 3 -39 -32 -39 -35 0 -51 20 -32 39 6 6 20 11 32 11 12
0 26 -5 32 -11z m121 -13 c46 -23 142 -101 142 -115 0 -3 -39 -12 -87 -19 -49
-6 -105 -15 -126 -18 l-38 -7 26 48 c16 30 25 64 25 91 0 24 2 44 5 44 3 0 27
-11 53 -24z"/>
<path d="M4158 8246 c-9 -19 -19 -49 -21 -67 -2 -19 -2 -27 0 -17 7 28 33 30
43 3 10 -27 24 -32 36 -14 3 6 20 17 38 25 30 13 30 13 6 14 -14 1 -19 4 -12
7 6 2 12 9 12 15 0 6 -7 8 -15 4 -8 -3 -15 -1 -15 5 0 6 -6 7 -12 2 -16 -9
-48 -15 -48 -8 0 3 6 14 12 25 9 13 9 23 2 30 -7 7 -15 0 -26 -24z"/>
<path d="M4196 8245 c-3 -8 -1 -15 4 -15 6 0 10 7 10 15 0 8 -2 15 -4 15 -2 0
-6 -7 -10 -15z"/>
<path d="M4161 8154 c0 -11 3 -14 6 -6 3 7 2 16 -1 19 -3 4 -6 -2 -5 -13z"/>
<path d="M4385 7950 c30 -48 345 -131 345 -90 0 6 -14 10 -31 10 -42 0 -127
23 -222 60 -83 32 -102 36 -92 20z"/>
<path d="M3325 7909 c-52 -24 -157 -55 -217 -64 -54 -7 -65 -25 -15 -25 74 0
297 76 297 101 0 13 -20 10 -65 -12z"/>
<path d="M3522 7432 c-78 -121 -83 -264 -11 -302 19 -11 19 -13 4 -24 -14 -10
-12 -14 22 -30 53 -26 152 -32 178 -12 17 13 18 17 5 25 -8 6 -15 18 -15 28 0
12 -7 18 -22 17 -13 0 -23 3 -23 8 0 11 37 10 80 -2 31 -9 110 -63 85 -58 -5
1 -27 -2 -49 -7 -34 -7 -36 -9 -20 -18 11 -6 21 -14 24 -18 8 -12 100 -22 100
-11 0 5 -7 13 -16 16 -8 3 -12 11 -8 17 5 8 8 8 14 -1 10 -16 70 -24 70 -10 0
6 5 8 11 4 13 -7 89 25 89 38 0 5 4 7 9 4 5 -4 7 3 4 14 -8 29 24 60 61 60 68
0 106 -12 106 -32 0 -11 -4 -17 -8 -14 -4 2 -9 -4 -9 -15 -2 -16 3 -19 20 -14
46 14 111 61 129 95 25 45 20 127 -12 193 -26 56 -40 56 -17 0 27 -67 30 -124
10 -163 -11 -20 -25 -34 -33 -32 -8 2 -23 4 -33 5 -16 1 -16 3 -3 13 18 13 21
34 6 34 -5 0 -10 -4 -10 -8 0 -5 -7 -9 -15 -9 -8 0 -15 4 -15 8 0 5 -7 5 -17
2 -11 -4 -14 -3 -9 5 5 8 2 10 -9 5 -10 -3 -20 -1 -24 5 -4 7 -19 8 -46 2 -22
-5 -41 -7 -43 -6 -2 2 -23 -17 -48 -43 -24 -25 -43 -39 -42 -31 5 26 -43 15
-80 -18 -15 -13 -32 -20 -41 -17 -29 11 -36 10 -33 -5 1 -8 -14 2 -34 24 -20
21 -51 48 -69 61 l-34 22 39 -2 40 -2 -33 37 c-17 20 -37 45 -43 56 -17 28
-26 13 -10 -17 14 -28 11 -49 -10 -49 -8 0 -13 -6 -11 -12 3 -16 -42 -23 -57
-8 -8 8 -7 10 5 5 10 -4 20 -1 24 5 12 19 2 20 -50 5 -40 -10 -44 -13 -21 -14
28 -1 29 -1 10 -18 -11 -10 -19 -30 -19 -46 1 -16 -3 -31 -7 -33 -4 -3 -8 0
-8 6 0 6 -4 9 -9 5 -18 -11 -51 46 -51 90 0 48 23 132 52 188 28 56 16 56 -20
-1z m355 -327 c0 -8 -4 -12 -9 -9 -5 3 -6 10 -3 15 9 13 12 11 12 -6z m30 -20
c0 -8 -4 -12 -9 -9 -5 3 -6 10 -3 15 9 13 12 11 12 -6z m-62 -15 c-3 -5 -12
-10 -18 -10 -7 0 -6 4 3 10 19 12 23 12 15 0z"/>
<path d="M3988 6907 c3 -43 0 -56 -18 -75 -26 -27 -21 -38 10 -22 31 16 42 55
30 101 -16 57 -27 55 -22 -4z"/>
<path d="M2526 6825 c4 -8 11 -15 16 -15 6 0 5 6 -2 15 -7 8 -14 15 -16 15 -2
0 -1 -7 2 -15z"/>
<path d="M2500 6777 c0 -15 4 -27 9 -27 6 0 8 10 6 21 -6 33 -15 36 -15 6z"/>
<path d="M2534 6779 c-3 -6 -1 -16 4 -21 8 -8 11 -5 9 11 -1 24 -3 25 -13 10z"/>
<path d="M3655 6724 c-211 -94 -240 -102 -298 -88 -49 12 -89 -46 -52 -76 12
-10 19 -9 38 3 17 11 59 16 152 18 72 2 133 8 136 12 11 15 141 10 204 -7 77
-21 112 -20 212 4 76 18 101 19 315 11 128 -4 237 -5 242 0 15 13 -3 55 -29
67 -37 17 -58 15 -73 -8 -19 -31 -51 -25 -205 35 -181 72 -203 75 -303 41
l-79 -27 -78 26 c-43 14 -83 25 -90 25 -7 0 -48 -16 -92 -36z"/>
<path d="M3480 6502 c0 -14 101 -79 160 -104 32 -13 50 -27 50 -38 0 -24 26
-44 105 -82 60 -28 81 -33 147 -33 72 0 82 3 175 50 68 35 98 55 97 67 -1 11
21 30 60 53 73 43 112 72 106 78 -3 3 -39 -15 -80 -39 -95 -56 -185 -74 -358
-74 -203 0 -283 20 -419 105 -24 14 -43 22 -43 17z"/>
<path d="M5821 7915 c-1 -12 6 -72 15 -135 27 -194 3 -349 -71 -446 -15 -19
-25 -38 -22 -40 10 -10 77 89 98 144 31 80 36 211 14 349 -10 59 -21 117 -26
128 -8 20 -8 20 -8 0z"/>
<path d="M1993 7605 c0 -8 4 -12 9 -9 4 3 8 9 8 15 0 5 -4 9 -8 9 -5 0 -9 -7
-9 -15z"/>
<path d="M2803 5951 c-1 -14 4 -19 17 -18 18 1 18 3 3 19 -20 22 -18 22 -20
-1z"/>
<path d="M2983 5783 c-7 -2 1 -16 19 -34 36 -34 35 -33 35 -14 0 19 -39 54
-54 48z m32 -23 c10 -11 16 -20 13 -20 -3 0 -13 9 -23 20 -10 11 -16 20 -13
20 3 0 13 -9 23 -20z"/>
<path d="M2880 5732 c0 -5 7 -15 15 -22 8 -7 15 -8 15 -2 0 5 -7 15 -15 22 -8
7 -15 8 -15 2z"/>
<path d="M5018 4930 c-72 -252 -178 -724 -165 -736 13 -13 200 760 195 806 -2
16 -13 -11 -30 -70z"/>
<path d="M5310 4348 c0 -48 13 -90 23 -78 8 9 -5 130 -14 130 -5 0 -9 -24 -9
-52z"/>
<path d="M7204 4209 c-3 -6 -1 -15 6 -19 9 -6 9 -9 -1 -12 -9 -3 0 -12 21 -23
28 -15 33 -15 22 -2 -9 10 -10 17 -2 22 13 8 5 22 -20 35 -13 7 -21 7 -26 -1z"/>
<path d="M7394 4049 c4 -30 25 -54 36 -43 7 7 3 17 -14 33 -14 14 -24 17 -22
10z"/>
<path d="M7420 3960 c-13 -8 -12 -10 3 -10 9 0 17 5 17 10 0 12 -1 12 -20 0z"/>
</g>
</svg>
